# xmcd
#
# Track frame offsets: 
#        150
#        15847
#        29587
#        42725
#        52715
#        69677
#        82125
#        93065
#        101787
#        117035
#        130380
#        144175
#        158492
#        173872
#        185295
#        197707
#        209920
#        222490
#        234195
#        248965
#        267352
#        283400
#        298965
#        314215
#        327752
#
# Disc length: 4580 seconds
#
# Revision: 0
# Processed by: cddbd v1.5.2PL0 Copyright (c) Steve Scherf et al.
# Submitted via: ExactAudioCopy v0.99pb4
#
DISCID=8011e219
DTITLE=Trebor Tichenor - Those Southern Blues
DYEAR=1995
DGENRE=Blues
TTITLE0=I've Got a Gal
TTITLE1=Those Southern Blues
TTITLE2=Them Doggone Triflin' Blues
TTITLE3=Floatin' Down the Old Green River
TTITLE4=Dallas Blues
TTITLE5=Those Navy Blues
TTITLE6=I Wish I Could Shimmy Like My Sister Kate
TTITLE7=Nobody's Sweetheart Now
TTITLE8=Joe Turner Blues and Make Me a Pallet on the Floor
TTITLE9=Market Street Blues
TTITLE10=Tipperary Blues
TTITLE11=Someday Sweetheart
TTITLE12=Wandering Blues
TTITLE13=Useless Blues
TTITLE14=Kansas City Kitty
TTITLE15=Joyman Blues
TTITLE16=Sweet Substitute
TTITLE17=Chattanooga Blues
TTITLE18=Hesitating Blues
TTITLE19=Tin Whistle Blues
TTITLE20=Frankie and Johnny
TTITLE21=Everybody Stomp
TTITLE22=Down and Out Blues
TTITLE23=Kansas City Blues
TTITLE24=Tain't Nobody's Business
EXTD=
EXTT0=
EXTT1=
EXTT2=
EXTT3=
EXTT4=
EXTT5=
EXTT6=
EXTT7=
EXTT8=
EXTT9=
EXTT10=
EXTT11=
EXTT12=
EXTT13=
EXTT14=
EXTT15=
EXTT16=
EXTT17=
EXTT18=
EXTT19=
EXTT20=
EXTT21=
EXTT22=
EXTT23=
EXTT24=
PLAYORDER=
